<?xml version="1.0" encoding="UTF-8" standalone="no"?>
<!DOCTYPE svg PUBLIC "-//W3C//DTD SVG 1.1//EN" "http://www.w3.org/Graphics/SVG/1.1/DTD/svg11.dtd">
<svg width="100%" height="100%" viewBox="0 0 1024 1024" version="1.1" xmlns="http://www.w3.org/2000/svg" xmlns:xlink="http://www.w3.org/1999/xlink" xml:space="preserve" xmlns:serif="http://www.serif.com/" style="fill-rule:evenodd;clip-rule:evenodd;stroke-linecap:round;stroke-linejoin:round;stroke-miterlimit:1.5;">
    <g transform="matrix(1.01503,0,0,1.0211,-17.0998,-14.6532)">
        <path d="M1025.68,265.061L1025.68,766.483C1025.68,904.854 912.669,1017.19 773.472,1017.19L269.055,1017.19C129.857,1017.19 16.846,904.854 16.846,766.483L16.846,265.061C16.846,126.69 129.857,14.35 269.055,14.35L773.472,14.35C912.669,14.35 1025.68,126.69 1025.68,265.061Z" style="fill:rgb(32,32,33);stroke:black;stroke-width:2.05px;"/>
    </g>
    <g id="Mast">
        <path d="M574.701,420.787C574.701,420.787 592.761,436.508 599.875,446.026C607.514,456.246 615.692,469.124 620.538,482.11C625.469,495.323 627.847,510.689 629.459,525.302C631.232,541.378 630.931,564.731 631.177,578.568C631.282,584.452 631.177,593.829 631.074,600.483C631.012,605.38 628.567,609.94 624.521,612.701C611.726,621.437 582.94,641.087 567.63,651.537C561.345,655.827 557.526,662.895 557.383,670.504C556.706,706.363 554.763,809.4 554.763,809.4L665.812,806.722C665.812,806.722 668.341,705.497 668.769,688.371C668.81,686.757 669.13,685.162 669.716,683.657C671.957,677.908 677.753,662.578 679.571,653.69C682.296,640.366 684.111,621.205 685.184,605.978C686.208,591.46 686.463,576.175 686.012,562.324C685.584,549.129 684.954,535.843 682.483,522.874C679.712,508.33 675.075,488.868 669.388,475.065C664.203,462.478 656.722,450.518 648.365,440.054C640.007,429.59 619.245,412.283 619.245,412.283L574.701,420.787Z" style="fill:rgb(65,75,81);stroke:black;stroke-width:2.08px;"/>
        <g transform="matrix(-0.957878,-0.732099,0.699662,-0.915437,1014.38,1132.63)">
            <path d="M686.94,241.085L686.94,326.854L768.175,326.854C768.175,374.223 731.805,412.624 686.94,412.624C642.105,412.624 605.705,374.192 605.705,326.854C605.705,279.485 642.075,241.085 686.94,241.085Z" style="fill:rgb(65,75,81);stroke:black;stroke-width:1.77px;"/>
        </g>
    </g>
    <g id="Top">
        <g transform="matrix(1,0,0,1.02035,0,-9.58021)">
            <path d="M446.933,470.908L446.713,528.857L535.418,528.506L535.57,470.768L446.933,470.908Z" style="fill:rgb(65,75,81);stroke:black;stroke-width:2.06px;"/>
        </g>
        <path d="M559.435,395.601C559.435,395.601 559.359,447.846 559.333,465.508C559.331,467.034 558.722,468.496 557.641,469.572C556.56,470.649 555.096,471.252 553.57,471.248C532.028,471.195 456.337,471.009 435.876,470.959C434.518,470.955 433.218,470.41 432.264,469.444C431.31,468.478 430.781,467.172 430.794,465.814C430.875,457.736 431.021,442.965 431.021,442.965C431.021,442.965 486.97,443.002 507.281,443.015C511.913,443.018 516.342,441.114 519.526,437.751C531.223,425.397 559.435,395.601 559.435,395.601Z" style="fill:rgb(65,75,81);stroke:black;stroke-width:2.08px;"/>
        <g transform="matrix(1,0,0,1,0.0055357,2.02328)">
            <path d="M460.806,528.805L460.618,557.817L524.088,557.83L524.296,528.837" style="fill:rgb(65,75,81);stroke:black;stroke-width:2.08px;"/>
        </g>
        <g transform="matrix(1,0,0,1,0,1)">
            <path d="M589.139,64.874C596.723,64.874 602.909,70.952 603.042,78.535C603.214,88.294 603.432,100.679 603.533,106.452C603.548,107.304 603.22,108.127 602.622,108.735C602.024,109.343 601.207,109.686 600.355,109.685C577.103,109.673 435.749,109.597 413.091,109.585C411.398,109.584 410.024,108.214 410.019,106.521C410,100.377 409.956,86.275 409.925,76.183C409.915,73.187 411.099,70.311 413.214,68.189C415.329,66.067 418.202,64.874 421.198,64.874C454.62,64.874 552.863,64.874 589.139,64.874Z" style="fill:rgb(217,152,38);stroke:black;stroke-width:2.08px;"/>
        </g>
        <g transform="matrix(1,0,0,1.36837,-0.390274,-39.1602)">
            <rect x="431.205" y="109.439" width="151.832" height="30.305" style="fill:rgb(65,75,81);stroke:black;stroke-width:1.74px;"/>
        </g>
        <g transform="matrix(1,0,0,1.10756,0,-17.8733)">
            <rect x="446.719" y="153.469" width="119.753" height="33.984" style="fill:rgb(217,152,38);stroke:black;stroke-width:1.97px;"/>
        </g>
        <path d="M402.748,206.311C402.757,197.157 410.178,189.741 419.332,189.737C455.017,189.723 538.918,189.688 576.095,189.673C580.94,189.671 585.588,191.596 589.013,195.024C592.437,198.453 594.358,203.102 594.351,207.948C594.298,243.86 594.182,322.509 594.141,350.069C594.132,356.342 591.698,362.368 587.348,366.888C571.417,383.44 531.959,424.439 518.922,437.985C516.202,440.811 512.449,442.408 508.527,442.407C491.909,442.405 445.576,442.4 420.005,442.397C415.365,442.396 410.915,440.551 407.635,437.268C404.356,433.985 402.516,429.533 402.521,424.892C402.569,378.316 402.701,251.796 402.748,206.311Z" style="fill:rgb(217,152,38);stroke:black;stroke-width:2.08px;"/>
    </g>
    <path id="Left_Wing" d="M294.514,254.577L294.937,555.655L223.608,723.164L222.196,833.92L132.037,667.296L294.514,254.577Z" style="fill:rgb(48,117,82);stroke:black;stroke-width:2.08px;"/>
    <path id="Right_Wing" d="M755.177,308.421L897.803,660.015L797.041,851.271L733.441,722.45L733.24,669.548L754.877,644.8L755.177,308.421Z" style="fill:rgb(48,117,82);stroke:black;stroke-width:2.08px;"/>
    <g id="Base">
        <g id="Anvil" transform="matrix(1,0,0,1.5571,0,-432.451)">
            <rect x="416.052" y="771.029" width="156.789" height="19.589" style="fill:rgb(217,152,38);stroke:black;stroke-width:1.59px;"/>
        </g>
        <path d="M750.317,942.313L749.232,887.843L736.181,875.687L712.214,874.842L680.796,841.53L680.551,811.122L397.929,818.317L404.505,940.909L750.317,942.313Z" style="fill:rgb(65,75,81);stroke:black;stroke-width:2.08px;"/>
        <path d="M680.063,795.489C680.063,795.489 413.113,795.512 361.661,795.517C359.412,795.517 357.258,796.419 355.68,798.022C354.102,799.624 353.232,801.792 353.266,804.04C353.504,819.775 353.988,851.793 353.988,851.793L331.476,874.695L294.208,874.685L278.687,889.248C278.687,889.248 278.476,926.263 278.412,937.634C278.407,938.503 278.748,939.338 279.361,939.955C279.974,940.571 280.807,940.917 281.676,940.918C300.1,940.92 390.497,940.935 409.383,940.937C410.299,940.938 411.178,940.572 411.823,939.922C412.469,939.272 412.829,938.392 412.823,937.475C412.783,931.447 412.7,919.037 412.655,912.42C412.637,909.617 413.74,906.923 415.719,904.937C423.651,896.981 444.652,875.919 452.607,867.94C454.598,865.943 457.312,864.835 460.132,864.87C470.372,864.995 495.447,865.301 502.844,865.392C504.145,865.407 505.367,864.765 506.09,863.683C507.226,861.985 508.985,859.356 510.383,857.266C511.648,855.374 511.376,852.848 509.736,851.27C508.219,849.81 506.319,847.982 504.621,846.348C503.502,845.271 502.883,843.777 502.911,842.225C502.939,840.673 503.612,839.202 504.769,838.167C505.961,837.1 507.25,835.947 508.449,834.873C509.655,833.794 511.25,833.257 512.863,833.387C514.476,833.517 515.964,834.303 516.982,835.561C518.391,837.304 519.951,839.233 521.237,840.824C521.949,841.705 522.99,842.256 524.118,842.351C525.246,842.445 526.363,842.075 527.212,841.325C529.313,839.468 531.66,837.395 531.66,837.395C531.66,837.395 531.492,837.073 531.214,836.539C530.021,834.25 530.059,831.514 531.315,829.259C532.571,827.004 534.877,825.532 537.451,825.34C573.318,822.677 679.869,814.763 679.869,814.763L680.063,795.489Z" style="fill:rgb(217,152,38);stroke:black;stroke-width:2.08px;"/>
    </g>
    <g id="Gamepad">
        <g transform="matrix(1,0,0,1,0,7.15569)">
            <path d="M402.285,598.782C402.285,598.782 400.619,592.938 401.444,590.715C402.27,588.491 405.079,586.911 407.238,585.44C409.82,583.681 413.621,581.531 416.937,580.159C420.206,578.806 423.865,577.985 427.133,577.209C430.237,576.471 433.976,575.55 436.549,575.499C438.61,575.458 440.663,576.121 442.572,576.899C446.176,578.368 452.432,583.876 458.174,584.311C472.788,585.419 517.021,584.159 530.256,583.55C532.879,583.429 535.246,581.854 537.581,580.654C540.03,579.397 542.264,576.864 544.948,576.006C547.631,575.148 550.789,575.31 553.681,575.507C556.574,575.704 559.483,576.403 562.304,577.187C565.439,578.058 569.347,579.391 572.489,580.734C575.484,582.013 579.079,583.685 581.157,585.241C582.797,586.47 584.913,588.026 584.956,590.075C585.023,593.261 581.558,604.358 581.558,604.358L406.311,604.123L402.285,598.782Z" style="fill:rgb(49,136,94);stroke:black;stroke-width:2.08px;"/>
        </g>
        <path d="M394.975,605.608L377.074,652.446L366.413,689.187L362.119,714.18C362.119,714.18 362.37,723.183 362.578,726.77C362.75,729.753 362.86,733.166 363.366,735.702C363.8,737.882 364.771,739.924 365.61,741.983C366.498,744.167 367.666,746.836 368.699,748.805C369.609,750.541 370.623,752.312 371.807,753.797C372.97,755.255 374.377,756.607 375.803,757.714C377.2,758.799 378.799,759.602 380.36,760.437C381.949,761.286 383.547,762.398 385.338,762.812C387.317,763.27 390.114,764.079 392.235,763.184C394.604,762.184 397.276,759.108 399.556,756.814C402.646,753.703 407.042,748.626 410.775,744.522C414.601,740.315 419.11,735.341 422.517,731.571C425.423,728.353 428.798,724.26 431.214,721.897C432.963,720.187 435.047,718.504 437.012,717.397C438.86,716.355 440.916,715.628 443.004,715.253C446.617,714.603 458.688,713.5 458.688,713.5L474.247,713.359L486.242,713.702L504.773,713.431L522.9,713.911C522.9,713.911 532.033,713.469 535.984,714.079C539.669,714.647 543.517,716.009 546.61,717.571C549.547,719.054 552.292,721.554 554.541,723.448C556.531,725.125 558.357,726.998 560.098,728.932C561.943,730.981 563.717,733.515 565.607,735.74C567.649,738.145 570.166,740.878 572.349,743.358C574.473,745.771 576.69,748.443 578.702,750.616C580.543,752.605 582.564,754.552 584.421,756.397C586.212,758.177 587.93,760.406 589.843,761.686C591.647,762.892 593.911,763.879 595.9,764.074C597.889,764.268 599.952,763.676 601.775,762.853C603.718,761.975 605.964,760.047 607.558,758.808C608.894,757.77 610.176,756.65 611.337,755.419C612.644,754.033 614.13,752.202 615.4,750.495C616.746,748.686 618.241,746.643 619.413,744.563C620.647,742.376 622.076,739.918 622.802,737.368C623.589,734.603 624.137,727.975 624.137,727.975L624.642,713.897L623.712,701.5L621.524,687.287L619.491,676.5L615.195,661.89L611.037,648.99L606.502,636.076L601.52,621.397C601.52,621.397 598.317,611.195 595.661,607.645C593.148,604.286 589.327,602.002 585.587,600.101C580.486,597.509 571.024,593.859 565.056,592.093C560.104,590.627 554.74,588.491 549.782,589.506C544.823,590.52 535.302,598.182 535.302,598.182L453.093,598.538L443.199,591.656C443.199,591.656 438.643,589.145 436.122,588.851C433.348,588.527 429.409,589.22 426.551,589.714C423.967,590.161 421.481,591.057 418.971,591.816C416.405,592.591 413.684,593.313 411.154,594.369C408.373,595.53 404.982,596.909 402.285,598.782C399.589,600.655 394.975,605.608 394.975,605.608Z" style="fill:rgb(49,136,94);stroke:black;stroke-width:2.08px;"/>
        <g transform="matrix(1.07672,0,0,1.12887,-55.0893,-14.5889)">
            <path d="M497.859,550.005L509.767,550.005L521.674,550.005C521.674,556.871 516.343,562.437 509.767,562.437C503.19,562.437 497.859,556.871 497.859,550.005Z" style="fill:rgb(217,152,38);stroke:rgb(32,32,33);stroke-width:1.89px;"/>
        </g>
        <path d="M469.062,661.008L461.008,660.936L461.027,671.079L450.891,670.993L451.036,678.988L461.066,678.925L460.872,688.983L469.09,689.248L468.962,679.012L479.059,679.166L479.039,670.941L469.067,670.873L469.062,661.008Z" style="fill:rgb(217,152,38);stroke:black;stroke-width:2.08px;"/>
        <g id="Joysticks" transform="matrix(1,0,0,1,-12.605,78.6811)">
            <g transform="matrix(1,0,0,1,-29.5072,3.74858)">
                <ellipse cx="472.266" cy="556.087" rx="11.204" ry="11.432" style="fill:rgb(217,152,38);stroke:black;stroke-width:2.08px;"/>
            </g>
            <g transform="matrix(1,0,0,1,64.7473,43.9132)">
                <ellipse cx="472.266" cy="556.087" rx="11.204" ry="11.432" style="fill:rgb(217,152,38);stroke:black;stroke-width:2.08px;"/>
            </g>
        </g>
        <g id="Button" transform="matrix(1,0,0,1,3.13255,72.38)">
            <g transform="matrix(0.639044,0,0,0.599563,240.979,231.177)">
                <ellipse cx="472.266" cy="556.087" rx="11.204" ry="11.432" style="fill:rgb(217,152,38);stroke:black;stroke-width:3.36px;"/>
            </g>
            <g transform="matrix(0.639044,0,0,0.599563,274.718,231.177)">
                <ellipse cx="472.266" cy="556.087" rx="11.204" ry="11.432" style="fill:rgb(217,152,38);stroke:black;stroke-width:3.36px;"/>
            </g>
            <g transform="matrix(0.639044,0,0,0.599563,258.401,215.542)">
                <ellipse cx="472.266" cy="556.087" rx="11.204" ry="11.432" style="fill:rgb(217,152,38);stroke:black;stroke-width:3.36px;"/>
            </g>
            <g transform="matrix(0.639044,0,0,0.599563,258.193,247.028)">
                <ellipse cx="472.266" cy="556.087" rx="11.204" ry="11.432" style="fill:rgb(217,152,38);stroke:black;stroke-width:3.36px;"/>
            </g>
        </g>
        <g transform="matrix(0.93102,0,0,0.875218,27.9702,79.7046)">
            <path d="M432.172,620.509C441.909,620.509 449.814,628.807 449.814,639.026C449.814,649.246 441.909,657.544 432.172,657.544C422.435,657.544 414.53,649.246 414.53,639.026C414.53,628.807 422.435,620.509 432.172,620.509ZM432.172,627.179C438.402,627.179 443.459,632.488 443.459,639.026C443.459,645.565 438.402,650.874 432.172,650.874C425.943,650.874 420.885,645.565 420.885,639.026C420.885,632.488 425.943,627.179 432.172,627.179Z" style="fill:rgb(32,32,33);stroke:black;stroke-width:2.31px;"/>
        </g>
        <g transform="matrix(0.93102,0,0,0.875218,121.74,120.165)">
            <path d="M432.172,620.509C441.909,620.509 449.814,628.807 449.814,639.026C449.814,649.246 441.909,657.544 432.172,657.544C422.435,657.544 414.53,649.246 414.53,639.026C414.53,628.807 422.435,620.509 432.172,620.509ZM432.172,627.179C438.402,627.179 443.459,632.488 443.459,639.026C443.459,645.565 438.402,650.874 432.172,650.874C425.943,650.874 420.885,645.565 420.885,639.026C420.885,632.488 425.943,627.179 432.172,627.179Z" style="fill:rgb(32,32,33);stroke:black;stroke-width:2.31px;"/>
        </g>
    </g>
</svg>
